<svg xmlns="http://www.w3.org/2000/svg" width="150.01" height="141.23" viewBox="0 0 150.01 141.23"><path d="M0,111.92c2.26,0,2.75-.49,2.75-3V90c0-2.52-.49-3-2.75-3v-.81H6.33l13.31,22.37h.06V90c0-2.52-.48-3-2.74-3v-.81h7.52V87c-2.32,0-2.75.48-2.75,3v22.72H18.67L4.84,89.45H4.77v19.47c0,2.51.45,3,2.74,3v.8H0Z" transform="translate(0.01 0.12)" fill="#006189"/><path d="M19.5,111.92c2.23,0,3-.71,4-3.39L30,91.28h2.65L39.25,109c.9,2.39,1.65,3,3.91,3v.8H34V112c1.25,0,2.42-.13,2.42-1.13a3.26,3.26,0,0,0-.26-1.19l-1.29-3.49H26.47l-1.23,3.29A3.29,3.29,0,0,0,25,110.7c0,1,.71,1.29,2.42,1.29v.8H19.5ZM27,104.63h7.26L30.7,94.88Z" transform="translate(0.01 0.12)" fill="#006189"/><path d="M41.24,111.92c2.26,0,2.75-.49,2.75-3V92.72H42.77c-3.39,0-4.07,1.16-4.42,3.52h-.94l.2-5H54l.16,5h-.94c-.32-2.39-1.06-3.52-4.44-3.52H47.58v16.2c0,2.51.48,3,2.74,3v.8h-9Z" transform="translate(0.01 0.12)" fill="#006189"/><path d="M68.64,105.82c0,3.65-1.14,7.23-7.78,7.23-5.62,0-7.75-2.52-7.75-7.23V95c0-2.51-.48-3-2.74-3v-.76h9v.8c-2.26,0-2.74.49-2.74,3v10.78c0,3.23.58,5.74,4.62,5.74,3.84,0,5-1.71,5-5.74V95c0-2.51-.49-3-2.74-3v-.76h7.84v.8c-2.27,0-2.74.49-2.74,3Z" transform="translate(0.01 0.12)" fill="#006189"/><path d="M70,111.92c2.29,0,2.74-.49,2.74-3V95c0-2.51-.45-3-2.74-3v-.76h8.33c3.83,0,8.25,1.12,8.25,5.42,0,4.09-2.29,5-4.87,5.58l3.84,6.81c1.16,2,1.65,2.87,3.32,2.87v.8H83.92l-5.68-10h-2V109c0,2.51.46,3,2.75,3v.8H70Zm6.28-10.64h2c2.91,0,4.65-1.23,4.65-4.16,0-3.46-2-4.36-4.57-4.36-1.85,0-2,.48-2,2.32Z" transform="translate(0.01 0.12)" fill="#006189"/><path d="M88.33,110.85,104.52,87.6H95.09c-3.49,0-4.13.9-4.46,3.68H89.7l.19-5.17h18.57v1.68L92.14,111.28H103c3.64,0,4.22-1.07,4.51-3.68h.94l-.2,5.16H88.33Z" transform="translate(0.01 0.12)" fill="#007964"/><path d="M106.58,102c0-6.87,2.1-11.07,8.8-11.07s8.81,4.2,8.81,11.07-2.06,11.07-8.81,11.07S106.58,108.85,106.58,102Zm8.8,9.52c4.3,0,5-4.45,5-9.52s-.71-9.52-5-9.52-5,4.49-5,9.52S111.06,111.5,115.38,111.5Z" transform="translate(0.01 0.12)" fill="#007964"/><path d="M125.9,102c0-6.87,2.1-11.07,8.81-11.07s8.81,4.2,8.81,11.07-2.06,11.07-8.81,11.07S125.9,108.85,125.9,102Zm8.81,9.52c4.3,0,5-4.45,5-9.52s-.71-9.52-5-9.52-5,4.49-5,9.52S130.39,111.5,134.71,111.5Z" transform="translate(0.01 0.12)" fill="#007964"/><path d="M106,23.73c.08.34.51.43.77.61,1,.42.17,1.72.69,2.58,0,0,.18.26.34.17.09.26.26.43,0,.69a5.27,5.27,0,0,1-.51.43c.69,1.12,2,.17,2,.17,1.29-1.81,0-5.51,0-5.51-1.21-4.31-.95-6-.95-6,.95-5.34,5.51-5.25,5.51-5.25s4.66-.26,5.18,5l.09,2.33a6.35,6.35,0,0,1,.68,2.59s.18,1.2-.52,1.72a11,11,0,0,1-2.67,2.41s-1.2.61-.94-.69c0,0,.51-.86.77-1.46a6.43,6.43,0,0,0,.17-1.38,22.38,22.38,0,0,0,0-2.59c0-.08-.08-.17-.17-.25s-3.19-.26-3.62-2.16c0,0-1.37-.86-1.2.78a17.24,17.24,0,0,0,1.29,5.43s2.24,4.3.86,7.15A11.64,11.64,0,0,1,111.22,34s-.7.77-3.53.77c0,0-3.19.35-4.49,1.38" transform="translate(0.01 0.12)" fill="#007964"/><path d="M37.12,59.67a6.1,6.1,0,0,1-2.81-1.75h-.22c-.08.15,0,.3,0,.46-.23-.16-.39-.61-.54-.61-.53.07-.22.91-.3,1.36-4.87-3-5.47-5.23-6.53-9.19a5.41,5.41,0,0,1-.23-1.44c-.31-2.88.23-5.77.38-8.66,0,.82-1.07,1.22-1.59,1.83-1.22,1.51-2,3.11-3.27,4.63a5,5,0,0,1-1.14,1.06h-.23a4.36,4.36,0,0,1,.08-1.44c.53-1.07,1-2.13,1.6-3.12.52-.83.9-1.67,1.51-2.5.45-.76.15-1.52.31-2.28a3,3,0,0,1,.6-1.59c.84-1.07,2.2-.92,3.34-.92a4.41,4.41,0,0,1,1.68,2.59,8.34,8.34,0,0,1,0,2.73c-.08.76-.31,1.44-.38,2.2a7,7,0,0,0,0,2.59,1.4,1.4,0,0,0,1,1c.61.23,1.3.08,1.91.38a4.09,4.09,0,0,0,1.21.53,8.56,8.56,0,0,0,3.42.08,17,17,0,0,1,2.73-.68,18.52,18.52,0,0,1,3.57.07,9.27,9.27,0,0,1,1.37.38" transform="translate(0.01 0.12)" fill="#007964"/><path d="M65.77,13.48c-.36-.13-.14-.5-.26-.82h.42a1.66,1.66,0,0,0-.48-.54h.33c.14-.35-.45-.29-.4-.55s.31-.29.48-.39a.56.56,0,0,0-.24-.57c.16-.1.52,0,.41-.13s-.68-.1-.9-.5h.17c-.22-.49.15-1-.24-1.42.42,0,.79.17,1.2,0-.39-.39-1.16-.56-1.37-1a2.4,2.4,0,0,0-1-1.26c.08,0,.17,0,.16-.1A2.6,2.6,0,0,0,63,4.7c-.27-.14-.6,0-.85,0,0-.16-.13-.41,0-.51.67-.16,1.43-.15,1.8-.7.16-.1-.29-.31-.46-.3a26.24,26.24,0,0,1-2.8.13,10.07,10.07,0,0,0-1.76-.58A13.34,13.34,0,0,0,53.12,3c-.41.13-.79.6-1.28.73a16.24,16.24,0,0,1-2.94.4c.51,0,.9.42,1.33.54.19.15.48.46.34.73-.39.39-.8.51-.82,1.11,0,.25-.66.24-.79.6,0,.08.12.32,0,.42-.47.39-1.13.54-1,1.3,0,.08-.31.29-.38.47a4.15,4.15,0,0,0-.1,1.45A.4.4,0,0,0,48,11v.26c-.08.09-.06.17-.24.19.13.33,0,.52-.26.71s.07.67-.09.78a12.11,12.11,0,0,1-1.28,1.58Z" transform="translate(0.01 0.12)" fill="#007964"/><path d="M113.38,54.16c1.24-2,2.76-3.71,3.64-5.95a13.27,13.27,0,0,1,1.39-3.07,23.91,23.91,0,0,0,2.67,1.79c.31,0,.33-.29.48-.53.81.83,1.7-.1,1.78-1,.12-2.87-1.38-5.25-2.21-7.89.65-1.07,1.74-2,1.35-3.26-.07-.7.29-1.29,0-1.63-.82-1.32-2.19.12-3,.93.72-.71-.12-2.2-1.33-2.62-.69,1.38-1.92,2.59-2.36,4.12l.24.15a11.87,11.87,0,0,1-2.72,4.71c-.75.69-2.08.2-3.25,0a24.14,24.14,0,0,0-4.61-1,84.46,84.46,0,0,0,5.46,13.8,5.37,5.37,0,0,0,1.85,1.79A1.52,1.52,0,0,0,113.38,54.16Z" transform="translate(0.01 0.12)" fill="#007964"/><path d="M57.14,50.68" transform="translate(0.01 0.12)" fill="#007964"/><path d="M48.77,63.49" transform="translate(0.01 0.12)" fill="#007964"/><path d="M40.88,64.48Z" transform="translate(0.01 0.12)" fill="#007964"/><path d="M109.14,11.28l-.18.42h-.29c0,.29.15.72,0,.86a2,2,0,0,1-1.28,0c-.28-.28-.85-.86-.57-1.28.15-.14.57,0,.86,0a.61.61,0,0,0,.32-.79l0-.07c-.43-.28-1,0-1.42-.14v-.4c-.43-.42-1-.28-1.43-.28a2.16,2.16,0,0,1-.56,1.57c-.43.28-.15,1,.42,1.28.29.14.71,0,1,0-.19,0-.44.24-.7.19v.2c-.25.11-.46-.2-.71-.1s.2.36.1.41a.76.76,0,0,0-.4.25c-.11.11-.06.31-.06.51s.36.36.36.62c.92,0,2,.15,2.7-.57a3.1,3.1,0,0,0-.15-2.24c-.46,0-1.18,0-1.13.56" transform="translate(0.01 0.12)" fill="#007964"/><path d="M40.09,53c-.43-.57-1.14-.71-1.71-1.14s0-1.28-.15-2c.86.29,1.14-.43,1.86-.71.57-.29.85-2-.29-2.14v1c-.14.43-.71.28-1.14.28.15-.56-.28-1.28.15-1.7.28-.15.7,0,1.13,0-.14-.29.15-.71-.14-.86-.29,0-.57,0-.71-.28s0-.71,0-1.14,1.14-.85.71-1.56-1.28-.43-1-1.43c1.85.15.56,2.7,1.13,3.84,1.43-.42,1-2.41,1.28-3.55s2-.86,3-.86,1.14,1.57.71,2.28c-1,1.85-1,3.84-1.27,5.83-.15,1.57-1.71,2.56-2.28,4" transform="translate(0.01 0.12)" fill="#007964"/><path d="M48.77,20.6c-1.52.38-1.7-.94-2.46-2.08-.57-.76-1.71.19-1.9,1a3.86,3.86,0,0,0,1,3.41c1,1-1,1-1.9,1,0,.38-.19.76,0,1,.76,1,2.09,2.46,3,1.71,1.34-.95,1.15-3,3-3.8.19,0,0-1-.19-1-.57,0-1.14-.38-1.7-.18-.95.56-.39,1.7-.57,2.65-.19,0-.76.19-1,0-.19-.38.19-1.14,0-1.14-.95-.38-.95,1.14-.95,1.71-.38,0-.76-.19-1.14,0a1.71,1.71,0,0,0-.57,1.9h-.62c-.38-.19-.58-.77-1-1a.91.91,0,0,0-1.32.38c0,1-.38,2.27.56,2.65s1.9.38,2.85.76a4.94,4.94,0,0,0,2.85,0c1.14-.38,2.84.19,3.6-.38,1.52-1.51.38-4.74.57-7" transform="translate(0.01 0.12)" fill="#007964"/><path d="M37.05,52.1a2.62,2.62,0,0,0,1.33,1.52,3.49,3.49,0,0,0,4.17-2.09,21.49,21.49,0,0,0,.38-11c0-.37-.56-.94-1-1.32-.76-.57-1.7-.19-2.09-1.33" transform="translate(0.01 0.12)" fill="#007964"/><path d="M39,37.15a5.44,5.44,0,0,0-2.47.19c-.19,0,.19.22,0,.6-.19.19-.3-.27-.49-.27-.19-.37.11-.33-.08-.71h-.57v.76h-.76c-.19-1.14.57-3.8-1.32-3-.2,0,.19,1,0,1.33-.2.19-1-.19-1.14,0a2.1,2.1,0,0,0,0,1.52h.76c.18,1-.19,2.08.18,2.84.06.11.28,0,.44,0s.38.23.38.15c.15-.38-.07-.91.15-1.14s.46-.08.77-.08a1.62,1.62,0,0,0,.3,1c.08.22.08.61-.07.68s-.54,0-.84.08-.16.53-.16.76c.16,0,.39-.07.54,0a.33.33,0,0,1,.23.23H35c0,.15.07.31-.08.38s-.61-.15-.69.08a2.08,2.08,0,0,0-.07,1.53c.07.31.54.54.69.31.3-.38.38-1.61,1-1,.22.16,0,.69.15,1.07a.59.59,0,0,0,.92.23c.07,0,0-.3-.08-.46h.38a1.79,1.79,0,0,1,0,.92c-.14.38-.76.15-1.15.23,0,.08,0,.15-.07.15a2.15,2.15,0,0,0-1.14-.23c0,.16,0,.23-.08.31-.38.08-.77.23-.84.61a2.39,2.39,0,0,0,0,1.45c.07.31.61.39,1,.31s-.15.76.08,1.07c.15.15.54-.92.69-.77a.59.59,0,0,0,.68.38v.39c-.15.23-.45.15-.68.23s-.23,0-.23.15c0,.61-.23,1.3.15,1.83s1.07.23,1.3.54,0,1.15.53,1.45c1.53.84,3.21,1.68,5,1.46v-.16Z" transform="translate(0.01 0.12)" fill="#007964"/><path d="M32.23,55.28c.38,1,1.14.57,1.9,1.14.19,0,.57.19.76.19,1.14,1.13,2.66,3,4.17,3.41l.76.76c1.14.38,2.09-.76,2.28-1.71.76-3.79-.19-8.16-3.61-10.24a5.43,5.43,0,0,0-6.82,1.7" transform="translate(0.01 0.12)" fill="#007964"/><path d="M44.64,13.21a1.35,1.35,0,0,1-1.14-.57c-.57-.57.19-1.14.19-1.71h-.76v.76a22.91,22.91,0,0,0-5.16-.41c-.38,0-.57,1.14-.19,1.71,0,.19.76-.19,1.14,0v.75c.75.57,1.52,0,2.27-.18a13.48,13.48,0,0,1,0,2.84,1.79,1.79,0,0,1-2.08.76v.57c1.14.19,2.08-.38,3.22-.19a4.54,4.54,0,0,1,.2-2.28c.38-.76,1.32-.57,2.27-.57Z" transform="translate(0.01 0.12)" fill="#007964"/><path d="M112.5,72.06c0,.39-.4.51-.72.67l-.12.23a1.39,1.39,0,0,0,.08.83c.12.16.4,0,.56-.27h.2a.91.91,0,0,1,.11.83c0,.27-.4.31-.51.55s0,.31-.08.43a1.36,1.36,0,0,1-.24.24.34.34,0,0,0,0,.2c.36.08.72,0,1,.08v.36a1.69,1.69,0,0,1-.83.63,4.16,4.16,0,0,1,0,1.22c-.2.56-.79.83-1.34,1.15a.6.6,0,0,0-.28.79c.2.36.71.08,1,.23s.24.36.24.6a3.89,3.89,0,0,1-1.18,0,1.15,1.15,0,0,1-.87-1.35c.16-.63.67-1.1.79-1.73a7.17,7.17,0,0,0,0-1.31c-.67-.83-1.62-1.46-1.94-2.57a1.82,1.82,0,0,1,0-1.3,1.72,1.72,0,0,1,1.47-.79,13,13,0,0,1,2.49.08.17.17,0,0,1,.15.12" transform="translate(0.01 0.12)" fill="#007964"/><path d="M82.35,11.78a.23.23,0,0,0-.08-.3c.47-.28.69-1.21.69-1.21l.32-.26c.34-.41,1.5-.57,1.5-.57a2.59,2.59,0,0,0,1.49-.79,4.83,4.83,0,0,0,1.39-1.31c.73-.91-.07-1-.07-1A3.79,3.79,0,0,0,84.35,7a2.7,2.7,0,0,1-.56.45,2.28,2.28,0,0,0-.91.86,1.7,1.7,0,0,0,0-1c2.22-3.76,5.57-3.42,5.57-3.42a2.45,2.45,0,0,1,2.28,2.58,2,2,0,0,1-1.37,1.68l-.13.19a3.28,3.28,0,0,0,2.93-2.93,4,4,0,0,0-2.86-4A9.12,9.12,0,0,0,80,4s-.33,0-.35.18c0,0-.3,0-.34.11s-.71-.26-.87-.14A9,9,0,0,0,71.57-.12S66.86-.39,67.4,3.31a4,4,0,0,0,2.68,3.25s-2.4-1.49-.76-3.66c0,0,1.62-1.58,4.51,1.43a4,4,0,0,1,.65,1.07,8,8,0,0,0,.45.93,1.91,1.91,0,0,0-.29.59,6.22,6.22,0,0,1-.76-.78,3.67,3.67,0,0,0-3.59-1.36s-.65.22-.11.9c0,0,1.08,1.89,2.15,2.19a5.8,5.8,0,0,0,1.55.88s-.17.24,0,.36a1.37,1.37,0,0,0,.43,1.08.27.27,0,0,0,0,.37,25.21,25.21,0,0,0,.45,3.87,6.46,6.46,0,0,0,.29,2,6.29,6.29,0,0,1,.44,1.33s-.25,2.55,1.48,2.85S79,18.17,79,18.17A6.49,6.49,0,0,1,79.77,17a6,6,0,0,0,.72-1.83,22.37,22.37,0,0,0,1.28-2.42A6.31,6.31,0,0,0,82.35,11.78Z" transform="translate(0.01 0.12)" fill="#007964"/><path d="M35.13,65.82a12.94,12.94,0,0,1-1.61-2.2,2.11,2.11,0,0,0-1.13-1.33.34.34,0,0,1-.16-.42A3.09,3.09,0,0,0,31,58.66a2.7,2.7,0,0,0-3.59.34.19.19,0,0,1-.16.2h-.59c-1.17.16-1.07,1-1.07,1,.14.48,1.08.23,1.08.23a.62.62,0,0,0,.27.09,6,6,0,0,0,.59.23,1.92,1.92,0,0,0,1.13.78s-1,.63-.49,2.45a7.59,7.59,0,0,1,.11,1.43,8.1,8.1,0,0,0,1,4.11,3.08,3.08,0,0,0,.33.59,5.2,5.2,0,0,0-.18,5,1.71,1.71,0,0,0,1.14.89s.63.12.49-.6a6.29,6.29,0,0,1,.17-2.48,14.57,14.57,0,0,0,2.09,2.67l3.31-6.51Z" transform="translate(0.01 0.12)" fill="#007964"/><path d="M33.77,80.39l.08.08v.18s.07-.05.15.23h2.09l.12-.23h.32l.24-1.37L39.83,77,41,66.75l-1.18-6.82-2.14,1.43a1.16,1.16,0,0,0-.61.1c-.1.3.11.71,0,1.12s-.4.51-.61.2a1.19,1.19,0,0,0-1.5-.76l-.13,0c-.21.1-.21.81,0,1s.61,0,.71.2c.3.31-.1.82,0,1.22.11.21.61.41.81.11.11-.11-.09-.41,0-.51h.32c-.11.4.2.91-.11,1-.51.2-.41.51-.41.91.2,0,.41.1.62,0s.3-.3.51-.2,0,.41,0,.51c-.31.1-.72-.1-.82.1A4.06,4.06,0,0,0,35.69,68c-.09.1-.2.31-.3.41-.31,1.63-.71,3.06-1.12,4.69A13.64,13.64,0,0,0,34.06,76h-.27a.81.81,0,0,0-.24-.64c-.07-.08-.18,0-.28.1s0-.18,0-.23-.21,0-.28,0-.46-.08-.59.08c.11-.13-.23-.42-.42-.27s-.26.58,0,.69a1,1,0,0,0,.35,0,1.06,1.06,0,0,0,0,.5c.07.11.15.22.11.34s-.11,0-.19,0-.27-.23-.39-.19c-.34.07-.53.42-.68.72s.19.42.38.58.2.3.34.38.27-.08.43-.12a1.82,1.82,0,0,1,.57,0c0,.11.08.3,0,.34l-.3.12c-.11,0,0,.19,0,.26s-.27.12-.35.23a.24.24,0,0,0,0,.31c.07.12.49.15.57.3a.57.57,0,0,0,.5.31.34.34,0,0,1,.07.19h.31S33.69,80.28,33.77,80.39Z" transform="translate(0.01 0.12)" fill="#007964"/><path d="M38.11,62c-1,0-1.73-.87-2.7-.66a1.08,1.08,0,0,0-.76,1.27c.15.46.71.51,1.07.81.2.21.2.52.5.62a2.12,2.12,0,0,0,1,.1,1,1,0,0,0,.56-.46c.15-.31,0-.67.1-1" transform="translate(0.01 0.12)" fill="#007964"/><path d="M83.77,11.52c-.77,0-1.53.15-2-.46a1.54,1.54,0,0,1,2.1-1.78c.61.3.31,1.22.31,2" transform="translate(0.01 0.12)" fill="#007964"/><path d="M105.42,23.75c.31.15.16-.31.61,0,.31-.46,0-1.07.31-1.53" transform="translate(0.01 0.12)" fill="#007964"/><path d="M47,17.36s-.51,1.45-5.4,2.87c0,0-3.64.91-4.08,2.39l-.27.57a1.21,1.21,0,0,1,.24.74s-.21.85,0,.95a.49.49,0,0,0,.66-.24.48.48,0,0,0,0-.17,3.71,3.71,0,0,1,3.33-2.56s.74.14.41.58a5,5,0,0,0-.14.94,3.18,3.18,0,0,1-1.85,2.8s-.88.44-.84.67A1.4,1.4,0,0,1,39,28c-.16.17,0,.47,0,.47A9.54,9.54,0,0,1,40.23,31c1,2.46,2.56,2.76,2.56,2.76.89-.1,2.64-.07,2.64-.07l-.66,12.27-4-.13a8.2,8.2,0,0,0-2-2.32,15.1,15.1,0,0,1-2.12-1.79,13.67,13.67,0,0,1-4.59-9.17,2.41,2.41,0,0,1-1.21-.64,2.52,2.52,0,0,1-1.25.1c-1.11,0-1-.78-1-.78h-.23a.59.59,0,0,1-.47-.54c-.14-1.18.64-1.32.64-1.32a2,2,0,0,1,.57-.6,8.49,8.49,0,0,1,1-1.32c.13-.13,0-.31,0-.31a1.3,1.3,0,0,1-.11-.43l-.48.18h-.09l.52-.45a.77.77,0,0,0,.16-.41c0-.94,1.48-1.3,1.48-1.3.27-.09.23-.81.23-.81a.49.49,0,0,1,.26-.63h0c-.1-.67-1.31-1.17-1.31-1.17a4.08,4.08,0,0,1-2.12-1.48c-2.19-3-.17-6.78-.17-6.78a18,18,0,0,0-.23,3.28A5.74,5.74,0,0,0,32,21.71c.58.28.49-.35.49-.35a12.07,12.07,0,0,0-.13-3.65A23.37,23.37,0,0,1,32,13.89c.09-8.67,4.5-12.36,4.5-12.36A5.19,5.19,0,0,1,36,2.75S33.77,6,34.17,8.07c0,0,1.58.78,6-3.71a7.32,7.32,0,0,1-4.28,4.52,4.81,4.81,0,0,0-2.53,4.69,20.45,20.45,0,0,0,.41,3.57s.64,1.69.27,5.63l.1.2a1.42,1.42,0,0,1,0,.71s.19.3.53-.17l.07-.54s.16-.4.37-.37a1.75,1.75,0,0,0,.74-.87,13.1,13.1,0,0,1,2.5-3.14s.84-.6.5-4.52a5.93,5.93,0,0,1,.54,5.06s.17.27,1-.17a10.32,10.32,0,0,1,3.14-1.11" transform="translate(0.01 0.12)" fill="#007964"/><path d="M47.23,12.64c-.61.1-1.22.31-1.73,0s.1-.81.3-1.12a1.07,1.07,0,0,0,0-1.12c-.1-.2-.5-.62-.81-.41-.1.21.2.72-.1.82a.88.88,0,0,0-.41.91h-.41A16.72,16.72,0,0,0,44,9.48c-.2-.71-1-1.53-1.63-1-.31.21,0,.82-.1,1.32a1,1,0,0,1-1.12.42c-.31-.11-.51-.42-.82-.62a.49.49,0,0,0-.7.06.42.42,0,0,0-.12.25,17,17,0,0,0,.11,2.14c1.53.92,3.46.71,4.89,1.73.1,0,.3.31.41.31.71.3,1.42.81,2.14.61.3-.1.51-.61.51-1" transform="translate(0.01 0.12)" fill="#007964"/><path d="M45,18.65c-.21.92.31,2.75-1.12,2.35-.2,0-.61-.41-.92-.31-.61.41-.4,1.32-.4,1.94a2,2,0,0,1,1.12.1.88.88,0,0,1,0,.71c-.21.31-.51.51-.72.82a1.68,1.68,0,0,0,1,1.94c.92.3,2,.61,2.65,0s.81-1.74,1.22-2.66.21-1.93.41-3c.21-.71.41-1.73-.1-2.24a1.57,1.57,0,0,0-1.23-.21" transform="translate(0.01 0.12)" fill="#007964"/><path d="M43.16,28.54c.1.3,0,.81-.21.92a1.56,1.56,0,0,1-1.73,0c.1.5-.21,1,.1,1.32s.81,0,.92.2-.11.62,0,.92c.41.62,1.22.1,1.73.31.1.1.41,0,.31.31a3.89,3.89,0,0,0,1.52-.11,2.18,2.18,0,0,0,1.53-2.55,2.47,2.47,0,0,0-2.75-1.93" transform="translate(0.01 0.12)" fill="#007964"/><path d="M44.13,28a2.47,2.47,0,0,1-1.23,2.6c-.46.45-1.38,1.07-2.14.45-.46-.3-.15-1.07-.76-1.37-.61-.15-1.54-.15-1.69.61-.15,2-.45,4.13,1.54,5.5,2.28,1.53,5.34,2.15,7-.3A5.94,5.94,0,0,0,47.46,30c-.46-1.37-2.3-2-3.67-2Z" transform="translate(0.01 0.12)" fill="#007964"/><path d="M37.7,56.72c-.86-.87-2.6-.46-3.36.3-.46.31-.46,1.38-.31,2.14h.46v.46c-.3.15-.76-.15-.92,0a1.74,1.74,0,0,0,0,1.23,1.09,1.09,0,0,0,1.23-.46v.46c-.46.15-.77.91-.61.91.91.31,1.07,1.38,2,1.53.45,0,.92.15,1.22,0,1.68-1.53.91-4.13,1.06-6.27A1.21,1.21,0,0,1,37.7,56.72Z" transform="translate(0.01 0.12)" fill="#007964"/><path d="M36.48,42.81a.66.66,0,0,1-.29.86l-.17,0H33.88c0-.3,0-.61-.31-.76a1.71,1.71,0,0,0-1.22,0A1.35,1.35,0,0,0,32.51,44H33a1.61,1.61,0,0,1,0,1.22h-.45c-.16-.76-.62-1.22-1.23-.76-.31.15-.31.76-.15,1.22s1.07.15,1.53.46,0,1.22.15,1.84c.31.45.76,1.06,1.38,1.06,1.22.31,2-1.06,2.75-1.83.3-.15.92-.15.92-.31C38.62,45.41,38.46,43,36.48,42.81Z" transform="translate(0.01 0.12)" fill="#007964"/><path d="M38.77,43a5.88,5.88,0,0,1-1.67-.15c-1.08-.46-2.91-.16-2.45,1.37.15.46.92.46,1.37.31.61-.31,1.08-.61,1.68-.92" transform="translate(0.01 0.12)" fill="#007964"/><path d="M35.41,38.83a1.34,1.34,0,0,0-1.07-.15c-.46.31-.46.61-.61.76-.61.46-1.07,0-1.68.46s-.31,1.07,0,1.68c0,.31.61.16,1.07,0V42h.65c.15.61-.46,1.53-.16,2.14.16,0,.62.16.77,0A4.7,4.7,0,0,0,35.76,42a4.31,4.31,0,0,0,0-2.75" transform="translate(0.01 0.12)" fill="#007964"/><path d="M48.41,10.4c-.46,0-1.08.15-1.38-.16s.46-1.06,0-1.68h-.61c-.16.31.15.77,0,1.07H46c.15-.76-.31-1.53-.77-.91s.16,1.83-.3,2.29a2.56,2.56,0,0,0-.46,2.44,3.62,3.62,0,0,0,4.28,1.08c1.07-.62.46-2.45.31-3.67" transform="translate(0.01 0.12)" fill="#007964"/><path d="M33,56.57c.16.76-.38,1.68-.07,2.44s1.42,1,1.6,1.68a4.84,4.84,0,0,1,.16,2.14,1,1,0,0,1,1.12.45c.6.61-.15.92-.92.92-.31,0,0-.46-.15-.61h-.46c.15.61-.62.76-.77.91C33,65.88,33,68.33,35,68.78A3.7,3.7,0,0,0,39.13,67c.92-2,0-4.28-.92-6.11-1.06-2-3.21-2.76-4.74-4.13" transform="translate(0.01 0.12)" fill="#007964"/><path d="M35.1,74.45c.16-.46-.3-.76-.61-.92-.61-.15-1.37,0-1.37.61-.31,1.07-.61,2.3.15,2.91a1.45,1.45,0,0,0,1.38.15,1.65,1.65,0,0,0,.45-1.52" transform="translate(0.01 0.12)" fill="#007964"/><path d="M31.13,47.28c0-.31.15-.61-.16-.92h-.3c-.76-.76.16-1.68,0-2.6h.77c0,.16,0,.31.14.31h.31a2.26,2.26,0,0,1,.31-1.68c-.92.3-1.53-.46-1.37-1.38,0-.3-.46,0-.46-.3V40.1c.6-.16,1.37.76,1.68.3.3-.3,1.07-.61.91-1.07,0-.46-.91.15-1.38-.3-.14-.31.16-.62.47-.77s1.07.15,1.22,0c.61-.92-.76-.76-1.38-1.07v-.61c-1.06.3-1.37-.61-.92-1.23.31-.45,1.08.16,1.54,0,.3-.15.3-.76.61-.91a4,4,0,0,1,2.29.61A2,2,0,0,1,36,36.58a21.21,21.21,0,0,0,.46,3.36,18.26,18.26,0,0,1,0,5.81c-1.68.77-2.91,2.3-4.9,2" transform="translate(0.01 0.12)" fill="#007964"/><path d="M92.91,17s0-3.9.19-6a13.39,13.39,0,0,0-.18-2s-.27-3,1.89-4.49a6.52,6.52,0,0,1,1.55-1L97,3.17a7.45,7.45,0,0,1,3.64-.6,3.14,3.14,0,0,0,2.18-.41s1.56-1,2.38.08a2,2,0,0,1-.06,2.63,14.31,14.31,0,0,0-.81,1.49,5.22,5.22,0,0,1-.77,1.2,4.65,4.65,0,0,0-.42,3.37,10.79,10.79,0,0,0,1.72,3.42Z" transform="translate(0.01 0.12)" fill="#007964"/><path d="M108.83,12.56a3.13,3.13,0,0,0-.65.35l.7-.1C108.83,12.76,108.88,12.66,108.83,12.56Z" transform="translate(0.01 0.12)" fill="none"/><path d="M86.88,12.64l.73.24a1,1,0,0,1,.11-1C87.34,12.25,86.74,12.64,86.88,12.64Z" transform="translate(0.01 0.12)" fill="none"/><path d="M108,13l.17-.11-1.26.17.09,0A1,1,0,0,0,108,13Z" transform="translate(0.01 0.12)" fill="#007964"/><path d="M87.72,11.93l.13-.12A.49.49,0,0,0,87.72,11.93Z" transform="translate(0.01 0.12)" fill="#007964"/><path d="M47.65,25.86c.09,0,.18,0,.25,0A1,1,0,0,0,47.65,25.86Z" transform="translate(0.01 0.12)" fill="#007964"/><path d="M95.41,80.09a5.74,5.74,0,0,1,2-1.16l0-.21a.2.2,0,0,1,.13-.09c0-.08.11-.08.17-.08l.34-.17c.13,0,.32.06.42,0a5.49,5.49,0,0,1,1.74-.43c.18,0,.44-.14.54,0v0H101c.08-.1.16,0,.24-.1a.34.34,0,0,0,.14-.24c.24-.34,1.13-1.1,1-1.48l-.08-.1a12.33,12.33,0,0,1-2.07-1,18.93,18.93,0,0,1-6.59-6.36l-.85-1.53h-.08c-.57,2.08,0,3.43.69,5.24.24.72.49,1.43.73,2.15.19.49.65.8.77,1.34.25,1-.63,3.69-1.75,3.69-.36.42-.72.4-1.21.57a4.24,4.24,0,0,0-1,.55,4.17,4.17,0,0,1-.4.3H94.7A7.16,7.16,0,0,0,95.41,80.09Z" transform="translate(0.01 0.12)" fill="#007964"/><path d="M83.12,79.94a5.71,5.71,0,0,1,2-1.15v-.05a1.85,1.85,0,0,0,.44-.18h.07c.17-.1.42-.08.58-.17A5.44,5.44,0,0,1,87.94,78h.55a.33.33,0,0,0,.28-.25c0-.08.27-.1.27-.15.25-.35,1.12-1.08,1-1.49s-1.7-.94-2.12-1.18l-.8-.62a19.83,19.83,0,0,1-4.7-6.65,6.38,6.38,0,0,1-.71-2.13c-.12-2,1.25-3.24,2.38-4.59.65-.84,1.32-1.67,2-2.5A10.74,10.74,0,0,0,87,57.28h.07V57.2a8.66,8.66,0,0,0-1.39.45c-.64.19-1.22.45-1.83.64-.43.14-.83.18-1.25.35l-1.34.72-1.77.83a26.12,26.12,0,0,1-9.56,2.29,6.35,6.35,0,0,1-1.23-.07l-.44-.13v.25a6,6,0,0,0-.32,1.73c-.23,1.42-.52,2.82-.79,4.22a68.06,68.06,0,0,1-2.05,7.69c-.32.9-.64,1.8-.95,2.71a8.71,8.71,0,0,1-.62,2.05H82.27s0,0,0,0C82.63,80.7,82.84,80.26,83.12,79.94Z" transform="translate(0.01 0.12)" fill="#007964"/><path d="M119.18,28.82c-.31,0-.61.08-.84-.08-.08,0-.08-.3,0-.38a2.26,2.26,0,0,0,.84-.84c.08-.15,0-.38,0-.61s-.23-.08-.23-.23c-.3.08-.69-.23-.91,0s.07.69-.23.92c-.08,0-.16.15-.31.07v.15h-.38c.15-.45-.15-.76-.61-.61v.39h-.16c-.14.29-.08.72-.48.62a1.42,1.42,0,0,0-.05.16v-.17h.05c.09-.26.22-.57.1-.69-.86-.57-.71-1.56-1.42-2.13-.15-.15-.57,0-.86,0a.31.31,0,0,1-.28-.29V24.4c0-.19-.51-.29-.76-.45h-.2c-.06.31.09.72-.06.82-.46.36-1.22.25-1.68.76-.15.26.05.67-.1.82s-.46,0-.56.1-.56.36-.76.21-.21-.26-.31-.31a.75.75,0,0,0-.71,0,9.12,9.12,0,0,1-.82.56.43.43,0,0,1-.35,0,1.6,1.6,0,0,1-.77-1.07,12.16,12.16,0,0,0,1.48-.15c.2,0,.2-.56,0-.77s-.46-.3-.25-.51.55-.05.76.21c.1.1.15,0,.25,0,.1-.31.31-.72,0-1a.57.57,0,0,0-.51,0s0,.15-.1.2-.76-.05-.56-.36c.11-.15.51,0,.66-.15s0-.3,0-.41.26-.25.31-.4a.63.63,0,0,0-.05-.66c-.15-.21.05-.46,0-.56s-.51-.16-.56.1-.31.66.1.66v.57h-.76c-.39-.57.57-1.33,0-1.89h-.76c.37,1.13-.76,1.51-1.52,1.13,0-.19-.19-.76,0-1,.58-.57,1.14-1.13,2.09-.94.44.08.34-.62.19-1a.38.38,0,0,0,.15,0,.35.35,0,0,0,.49,0l0,0a.61.61,0,0,0-.41-.76h0c-.15,0,0-.21,0-.36a.32.32,0,0,0,.36-.26,1.07,1.07,0,0,0-.06-1c-.2-.2-.55,0-.81-.1,0-.3-.1-.91.26-.91,0,.2-.1.51.15.61a.72.72,0,0,0,.46,0c.25-.21,0-.56.2-.82,0,0,.25,0,.3-.15s.06-.51,0-.56c-.4-.1-.86.15-1.22,0,0,0,0-.36.06-.36.61-.15,1.32.21,1.86,0,.18,0,.22-.48.07-.73h-.16a1.75,1.75,0,0,1,0-.56c.1-.16.35,0,.45-.16s0-.35.11-.5a.33.33,0,0,1,.41-.11s-.06.26,0,.31.25,0,.35,0v-.1h.16c0,.1-.06.25,0,.3a6.93,6.93,0,0,0,.76.41.23.23,0,0,0,.25,0,2.79,2.79,0,0,0,.87-1c.1-.3-.25-.66,0-.92s.36-.81.1-1-.66.11-1,.47a.51.51,0,0,1-.42,0,.11.11,0,0,1-.1-.11.41.41,0,0,1,.11-.26c.06-.06,0-.21,0-.26a1.45,1.45,0,0,0-1.12,0c-.2.16-.15.51-.46.67s-.25-.31-.2-.47.41-.2.51-.35.25-.36.15-.46a1.24,1.24,0,0,0-1.53-.2c-.25.2,0,.71-.15,1a1,1,0,0,0-.15.47c0,.1-.1,0-.15.1H107c-.35.25-.3.86-.15,1.27s-.14.89.12,1l1.26-.17a3.13,3.13,0,0,1,.65-.35c0,.1,0,.2,0,.25l-.7.1L108,13a1,1,0,0,1-1,.1l-.09,0-2.52.36c-.28-.14-.71-.14-.85-.56a.75.75,0,0,0-1-.43,2.48,2.48,0,0,0-1.28-1.85c-.57-.29-1.13,0-1.56-.29-1.14-.71-2.56-.71-3.28-1.71-.28-.28-.86-.56-.71-1.13-.57,0-1.13-.29-1.7-.14,0,.14,0,.28-.14.28h-.3c0,.57.15,1.42-.13,1.71-.43.56-2-.43-1.71.85h-.57c-.29.28-.57.43-.85.71s0,.71,0,1,.56.14.71.43c-.58.14-1.29.57-1.71.14-.28-.14,0-.86-.28-1.28s-.29.28-.29.56a1,1,0,0,0-.9.08l-.13.12a1,1,0,0,0-.11,1l-.73-.24c-.14,0,.46-.39.84-.71a.49.49,0,0,1,.13-.12c.13-.13.21-.24.15-.29s-.51,0-.82.2-.81.41-.91.21c-.41-.52.3-.52.71-.61v-.41c0-.1-.1-.1-.2-.1v-.53c0-.21.2-.1.3-.1.31-.42,0-.92.1-1.33-.71,0-1.12.81-1.42,1.43-.18.13-.35.26-.52.41-.3.3.21,1.12,0,1.22-1,.4-.4-1.33-.81-1.84-.21-.31-.92-.1-1.22.21a1,1,0,0,0-.21.91h-.23c-.21.62.31.82.81,1.12.11.11,0,.51,0,.51l-.5.11-.11.81-.2.41a7.77,7.77,0,0,1-.71-4.79l-.41.82c.2-1.94-.81,2.34-.81,2.34-.51-.1-.72-1-1.23-1.33-.31-.1-.51-.3-.82-.3a19.41,19.41,0,0,0-4.17.2c0-.1-.21-.2-.11-.4-.71.1-1-.62-1.42-1-.21-.3-1.12.1-1.31-.08-.42-.43-.7-1.85-1.7-1.56-.28.14-.28.42-.28.71a3.18,3.18,0,0,1-1.15,0c-.42-.15-.13-.71-.28-1.14h-.28V6.19c-.57,0-1.14.28-1.57.14-.14-.14,0-.57,0-.71a.9.9,0,0,0-1.14.57h0c-.14.42-1,0-1.42.28a2.71,2.71,0,0,0-1.28,2.28c-.85-.15-1.42.57-2.13.57a17.51,17.51,0,0,1-2.71,0c-.85-.29-2-.29-2-1.43-.71.15-1.28-.28-2-.14a4.21,4.21,0,0,0-2.14,2,2.83,2.83,0,0,1-2.85.86c0,.28.15.71,0,.85-.42.28-1,0-1.41.28-.15.15.28,1-.15,1-.71.15-.42.71-.71,1h-.43a.67.67,0,0,0-.42-.85h0c-.86,0-1.71.28-2.42-.72,0-.14-.71-.14-.71,0-.52,1.11-1.83,2.41-.83,3.41.29.42,1-.57,1.57-.14a1.82,1.82,0,0,1,.43,2.41c-.57.72-2,0-3,.43-.14,0-.14.86,0,1.14.71,1,2,.28,3,.43v.56a1.65,1.65,0,0,0,1.42-.14c.14,0,0-.42,0-.71a.14.14,0,0,0,.14.14,2.23,2.23,0,0,1,.72-1.13c.7-.57.56.42.7,1,.15.14.57-.14.72.14,0,1.14.28,2.56-1,3.28v.57c1.28-.29.71,1.42.85,2.13a.3.3,0,0,0,.33.17,1,1,0,0,1,.25,0c-.07,0-.16,0-.25,0-.51.15-.67.74-1,1.11-.14.14,0,.43,0,.71s.43.29.71.29v.31c-.71.14-1.42-.42-2.13,0-.14,0-.14.43,0,.71a1.9,1.9,0,0,0,2.28.86c.43-.14.28-.71.43-1.14a2.29,2.29,0,0,0,2,.85c0,1.28-1.56,1.28-2.56,1.28a1.12,1.12,0,0,1-.28.72A1.31,1.31,0,0,0,47.34,33a.74.74,0,0,0,1-.37s0,0,0-.06c.71,1.14-.71,1.57-1.28,2.28h-.43c-.85,1.13-2.13,2-3.41,1.42-.57-.14-1.14-.14-1.85-.29-.43-.14-.15-.85-.43-.85-1.28-.42-.28,1.57-.85,2.28,0,.14-.72,0-.86-.14-.28-.72-.14-1.85-1.13-1.43-.15,0,0,.71.42,1,.14.14,0,.57,0,1a2.93,2.93,0,0,1,2.42.43c.14.29-.14.71,0,1s.71-.14.85.14a26.08,26.08,0,0,1,0,4.84c1.28-.28,1-2,1.14-3,.14-.43,1.14-.43,1.14-.29.71,1.29-.71,2.28-1.28,3.28a2,2,0,0,0,.14,1.56c0,.15.29-.14.57-.28h.57v.28h.43c.42.86-.57,1.28-1.28,1-.43-.14-.72-.43-1.14-.29-.43.43-.29,1.14-.29,1.71h.43a.62.62,0,0,1,0,.71.77.77,0,0,1-1-.29.71.71,0,0,1-.09-.28,15.64,15.64,0,0,1,.14-2.56c-.14,0-.56-.14-.56.15a15.63,15.63,0,0,0,0,2.56c-.29-.15-.43.28-.57.28-.43,1.28.42,3.13-1,3.84-.43.29-1.57.72-1.85.15a7.47,7.47,0,0,0-1.14-2.42c-.85,1.42.14,3.13-.57,4.41-.28.57-1-.29-1.71-.43,0,.43.15.85,0,1.14s-.71-.14-.85,0a1.6,1.6,0,0,0,0,1.14.91.91,0,0,0,.85,0c.43-.43.72-1,1.43-.85a.73.73,0,0,1,.28.56,1.22,1.22,0,0,0-1,.14v.43a4,4,0,0,0,3.56-2.56c0,.29.13.71,0,.85-.58.58-1.86,1-1.43,1.85,0,.15,1,0,1,0,.43,1.85-.29,3.85.28,5.56a7.86,7.86,0,0,1,.15,3.13c0,.71-.86,1-1.15,1.56-.13.29,0,.57,0,.85.15.43.43.72.43,1.14a8.88,8.88,0,0,0,1,3.7c.43.71-.15,2,.28,2.85s-2.34,2.08-2.59,4.57a.57.57,0,0,1,.39-.18l1.1-.16.66-.2c.41-.17.64-.44,1.16-.44l1.1-.62a2.94,2.94,0,0,0,1-.5,11.07,11.07,0,0,0,1.2-2.38c.56-1.07,1.29-2.09,1.83-3.18.32-.75.66-1.5,1-2.25A23.29,23.29,0,0,1,46.84,68l.86-1.29c.26-.49.51-1,.77-1.49L49.31,64l1.36-3.1a12.29,12.29,0,0,0,.73-1.41c.23-.58.21-1.28.46-1.84.73-1.71,1.63-3.37,2.5-5,.18-.34.56-.57.73-.91a.81.81,0,0,0,.08-.46c-.08-.44-.65-.85-.92-1.2a3.71,3.71,0,0,0-.85-1l-.75-.3c-.23-.11-.36-.35-.62-.35a4.72,4.72,0,0,0-1.45.16h-.79a6.52,6.52,0,0,1-2.16,0l-.71-.39a1.25,1.25,0,0,1-.48-.26,6.32,6.32,0,0,1-1-1.6c-.13-.25-.47-.37-.58-.62-.39-.91.29-2.38.71-3.13.24-.44.9-.81.9-1.35.51-.2,1.39-.33,1.69-.83a1.88,1.88,0,0,0,.11-.62,1.26,1.26,0,0,0,0-.72c-.39-.62-1.39-.9-1.39-1.68a1.65,1.65,0,0,1,.29-.89,6.93,6.93,0,0,1,3-3.08q.38-.28.78-.54h.72a6.85,6.85,0,0,1,2.39-.65,3.58,3.58,0,0,1,1.6-.44v-.07c.43-.06,2.11.13,2.11.51.41-.09.67.12,1,.21,1.46.4,3.57,1.38,4.3,2.78a7,7,0,0,1,.51,1.16,2.76,2.76,0,0,0,.13.86A2.63,2.63,0,0,0,67,38.9a7.29,7.29,0,0,1,1.5-.55,10.25,10.25,0,0,1,3.51-1,11.29,11.29,0,0,0,.57-1.09,3.38,3.38,0,0,1,.28-.83A8.24,8.24,0,0,1,76,34.52c.14-.09.73-.17.73-.36h.07c.5.16.81-.14,1.24-.27a4.4,4.4,0,0,0,1-.29c1-.56.38-1.47-.21-2L77,30.15a3.26,3.26,0,0,0-1-.63c-.63-.18-1.28.2-1.94.2a5,5,0,0,1-1-.29L72,29.33c-1.4-.42-1.55-2.11-1.55-3.42.37-.27.68-.48,1.14-.18.09.06.12.18.24.18V26h.08a.45.45,0,0,0,.07-.29c.22-.1-.06-.44.07-.44a3.58,3.58,0,0,1,1.6-3.84,2.17,2.17,0,0,1,.87-.44c.08,0,.08.07.08,0h.14v-.08c.09,0,.15,0,.15.15a1.48,1.48,0,0,1,1-.58c.08,0,.08.07.08,0l.21-.15,1.14.06a3.84,3.84,0,0,1,1.51,0,7.92,7.92,0,0,1,1.06.94v.07h.07v-.14c.12-.23.21-.8.58-.8a2.87,2.87,0,0,1,2.92,2.61,2,2,0,0,1,0,1.23c0,.14-.48,1-.14,1v.07c.59-.27,1.27-.39,1.87-.62a6.07,6.07,0,0,1,2.27-.67l2.17.36a7,7,0,0,1,1.55.83,10.89,10.89,0,0,1,3.22,2.9,6.86,6.86,0,0,1,.93,1.28,6,6,0,0,1,.46,1.66A8.29,8.29,0,0,1,95,35.56c-.15.31-.75.43-.75.83a6.62,6.62,0,0,0,1.16.31l3.1.74a8.19,8.19,0,0,1,1.26.53,19.63,19.63,0,0,1,3.09,1.51,8.39,8.39,0,0,1,1.82,1.36c.22.29.33.62.54.92a8.34,8.34,0,0,1,1.2,2.19,10.38,10.38,0,0,1,0,5.42,45.94,45.94,0,0,1-2,6.39l-1.65,3.72C102.18,61,101,62.3,100.84,64a4.13,4.13,0,0,0,.28,1.81,17.69,17.69,0,0,0,1.7,2.58,32.68,32.68,0,0,1,3.53,6.26c.19.5.65.81.78,1.35.24,1-.64,3.69-1.76,3.69-.36.42-.72.39-1.21.57a4.28,4.28,0,0,0-1,.55.87.87,0,0,0-.15.13h8.16c.43-1.71.86-1.42,1.29-1.57.13-.14,0-.56,0-.85-.86.14-1.86,0-1.29-1,0-.14.57,0,1,0-.14.15.29.29.14.43.57-.14.86.43,1.28.71-.14-.57.29-1.56-.28-1.85-.43-.14-1,.15-1.43,0-.71-.42-.28-1.13-.28-1.85v.43a.81.81,0,0,0,1.25-1l-.11-.11h-.57v.29h-1.57c-.28.14-.56.28-.42.71-.57.14-.86-.43-1.14-.71a1.17,1.17,0,0,1,.42-1.43c.58-.28,1,.29,1.43.57.71.43.42-.71.57-1.14h.42c0,.57.71.72,1,.57.57-.57.29-1.28.43-2a1,1,0,0,0-.29-.57,14.48,14.48,0,0,1-3.7-2.7.93.93,0,0,1,.5-1.22.79.79,0,0,1,.22-.06,5.82,5.82,0,0,1,1.56,0c.71-.14.71-1,.43-1.57a8.31,8.31,0,0,1-1-1.28c-.14-.28-.14-.85.28-1,.72-.14,1.57.28,2-.14s-.43-.86-.43-1.29a3.92,3.92,0,0,1,.14-2.84,5.84,5.84,0,0,0,.15-3.13c-.15-.29-.58-.43-.71-.71v-.43c.42.14.71.43,1.13.28.14-.14-.14-.71,0-.85s.71,0,1,0c0,.14,0,.28.14.28.43,0,1,.15,1.29-.14s-.3-1.28.13-1.56.57,0,.86.42c.14,0,.56.15.71-.14a2.1,2.1,0,0,0-.29-1.85c-.42-.28-1,0-1.28-.14s.57-.86.29-1c-.72-.28-1.57-.14-2-.85V47.9c.42-.14,1-.43,1-1,0,0,.28,0,.28.14a3.72,3.72,0,0,0,.72-2.7c-.57-1.42-1.85-2.7-1.71-4.27.57,0,1.14,0,1.14-.57a33.36,33.36,0,0,0,0-4h.57c.16-.72-.61-.72-1.13-.64v.23c-.32,0-.62.3-.93.15a.91.91,0,0,1,0-.61c.08-.08.39.07.46,0a.71.71,0,0,0-.07-.69c-.08-.15-.46.15-.69.08v-.16c.3-.07.69,0,.84-.3s.84-.54.69-.77-.46-.07-.69-.07c.07.3-.31.38-.46.3s.08-.38.23-.53-.08-.46,0-.69c.3-.38.84-.08,1.3-.08-.16-.53-.38-.61,0-.84.08,0-.08-.3,0-.38.3-.3.84-.08,1-.3s0-.46.08-.69c.07,0,.31-.08.38,0a1.19,1.19,0,0,0,1.53.69C119.41,30,119.11,29.28,119.18,28.82Z" transform="translate(0.01 0.12)" fill="#007964"/><path d="M56.32,80l2.46-.75a7.89,7.89,0,0,0,1.41-.58,1.2,1.2,0,0,0,.33-.41,9.81,9.81,0,0,0,.38-3c.1-1.3.31-2.74.31-4.07V69.81l.24-2.25c0-.78,0-1.47.12-2.32s.21-1.7.3-2.54A6.58,6.58,0,0,0,62,60.88C62,60.1,60.1,59.45,60.1,58.7a2.23,2.23,0,0,0-1.18.69L57.3,62.3a3.11,3.11,0,0,0-.44.69l-.24,1.52c-.09.21-.28.33-.4.53a12,12,0,0,1-.72,1.34c-.26.37-.59.64-.87,1Q52.88,69.71,51.14,72c-1.43,1.84-3,3.53-4.56,5.32-.28.32-.57.63-.86,1A21.33,21.33,0,0,1,44,80.93H55.66a2.55,2.55,0,0,1,.31-.61A.56.56,0,0,1,56.32,80Z" transform="translate(0.01 0.12)" fill="#007964"/><path d="M115.82,28.38a1.42,1.42,0,0,1,.05-.16h-.05Z" transform="translate(0.01 0.12)" fill="#007964"/><path d="M45.44,46.33c-.13-.25-.47-.37-.58-.62-.39-.91.29-2.38.71-3.13.24-.44.9-.81.9-1.35.51-.2,1.39-.33,1.69-.83a1.88,1.88,0,0,0,.11-.62,1.26,1.26,0,0,0,0-.72c-.39-.62-1.39-.9-1.39-1.68a1.65,1.65,0,0,1,.29-.89,6.93,6.93,0,0,1,3-3.08q.38-.28.78-.54h.72a6.58,6.58,0,0,1,1.85-.55A3.12,3.12,0,0,0,54,30.2a4.23,4.23,0,0,0-3.69-3.27l-1-1c-.43.71-1.28,1.42-1.71,1s-1-2-1.56-1.28c-.29.43-.29,1.28-1.15,1.71s-.13,1.42-.28,2.28c-.28-1,.15-3.14-1.28-2.28-.56.28-.56,1.28-.28,2,.14.43.85.14,1.28.43.14.28-.15.71,0,1s.85-.28,1.13-.14v.59c-.7.43-2.41-.28-2.13,1,.14,0,.29,0,.29.14,0,.42.14.85,0,1.14-.85.85-2.28,1-2.57,2.13a5.84,5.84,0,0,0,.15,3.13,13.86,13.86,0,0,1-.43,4.84h.43a1,1,0,0,1-.29,1.14c-.57.28-1.13.71-.85,1.28h.73v.2a.6.6,0,0,0-.81.27.75.75,0,0,0-.05.16c-.13.43.15,1.14-.13,1.28a1.63,1.63,0,0,0-.57,1.71,2.58,2.58,0,0,0,3,1.42,7.7,7.7,0,0,0,4.59-3,1.82,1.82,0,0,1-.36-.2A6.32,6.32,0,0,1,45.44,46.33Z" transform="translate(0.01 0.12)" fill="#007964"/><path d="M100.84,64a4.13,4.13,0,0,0,.28,1.81,17.69,17.69,0,0,0,1.7,2.58c.19.27.37.54.55.82l.43-12-1,2.31C102.18,61,101,62.3,100.84,64Z" transform="translate(0.01 0.12)" fill="none"/><path d="M124.78,64.85c-.43-.6-.77-1.25-1.25-1.8a7.2,7.2,0,0,0-1.36-1.16,1.24,1.24,0,0,1-.34-.38A6,6,0,0,0,120.54,60c-.26-.22-.3-.56-.51-.86-.69-.93-1.76-1-2.44-1.93-.13-.21,0-.51-.13-.72a3.78,3.78,0,0,0-.82-1.46,1.45,1.45,0,0,0-1.32-.21l-1.07.38a2,2,0,0,1-1.5,0c-1.5-.6-3.08-.38-4.67-.47a.25.25,0,0,1-.17,0h-.21a2.86,2.86,0,0,0-.47-.22H104.9c-.16.43-.31.86-.48,1.28l-.62,1.41-.43,12c.27.4.53.8.78,1.21a13.47,13.47,0,0,1,2.2,0,5,5,0,0,0,.77-.17,1.16,1.16,0,0,1,.86,0c.3.12.52.42.81.51.64.21,1.16-.3,1.76-.47a1.32,1.32,0,0,1,1.11.43c.13.17.3.34.43.51.51.47,1.07.81,1.24,1.59,0,.21.3.29.38.51a5.62,5.62,0,0,0,.52,1.24c.09.17,0,.51.09.51a3.49,3.49,0,0,0,2.3.09,1.7,1.7,0,0,0,1.29-.86c.3-.47-.35-1.38.13-1.58a1.62,1.62,0,0,0,.73-.56H119a1.72,1.72,0,0,0,0-.64,1.08,1.08,0,0,1-1.63-.77c-.08-.34-.25-.6-.34-.9a2.9,2.9,0,0,1,0-1.49c.13-.52.35-1.12.86-1.29a1.86,1.86,0,0,1,1.37.13,15.36,15.36,0,0,0,0,2.35s.14-.08.22-.08a6.26,6.26,0,0,0,1.12-1.29h.17a11.09,11.09,0,0,1,0,1.63c.56-.07.92-.77,1.17-1.07s.64-.34.94-.56a2.12,2.12,0,0,0,.38-.47,2.64,2.64,0,0,1,.51-1c.26-.43.9-.43,1.12-.86A1.05,1.05,0,0,0,124.78,64.85Z" transform="translate(0.01 0.12)" fill="#007964"/><path d="M22.28,140.28c2.3,0,2.75-.49,2.75-3V123.36c0-2.53-.45-3-2.75-3v-.81h8.35c3.85,0,8.29,1.13,8.29,5.44,0,4.11-2.3,5-4.89,5.6l3.85,6.83c1.17,2,1.65,2.88,3.34,2.88v.81h-5l-5.7-10h-2v6.17c0,2.52.45,3,2.75,3v.81H22.21Zm6.31-10.72h2c2.91,0,4.66-1.23,4.66-4.17,0-3.47-2-4.37-4.6-4.37-1.85,0-2,.48-2,2.33Z" transform="translate(0.01 0.12)" fill="#006189"/><path d="M39.77,140.28c2.3,0,2.75-.49,2.75-3V123.36c0-2.53-.45-3-2.75-3v-.81h9.07v.81c-2.3,0-2.75.48-2.75,3v5.76H54.7v-5.76c0-2.53-.49-3-2.76-3v-.81H61v.81c-2.3,0-2.75.48-2.75,3v13.92c0,2.52.45,3,2.75,3v.81H51.94v-.81c2.27,0,2.76-.49,2.76-3v-6.67H46.07v6.67c0,2.52.45,3,2.75,3v.81h-9Z" transform="translate(0.01 0.12)" fill="#006189"/><path d="M61.67,140.28c2.26,0,2.74-.49,2.74-3V123.36c0-2.53-.48-3-2.74-3v-.81H76.91l.19,4.69h-.94C76,122.49,75.61,121,72,121H69.92c-1.59,0-1.94.51-1.94,2.33v5.73h4.24c2.1,0,2.43-.46,2.43-2.59h.87v6.7h-.87c0-1.94-.33-2.62-2.43-2.62H68v6.69c0,2.17.25,2.33,1.94,2.33h3c2.78,0,3.69-1.17,3.79-3.21h.93l-.2,4.7H61.67Z" transform="translate(0.01 0.12)" fill="#006189"/><path d="M77.77,140.28c2.3,0,2.75-.49,2.75-3V123.36c0-2.53-.45-3-2.75-3v-.81h9.07v.81c-2.27,0-2.76.48-2.76,3v13.92c0,2.52.49,3,2.76,3v.81H77.77Z" transform="translate(0.01 0.12)" fill="#006189"/><path d="M86.94,140.28c2.27,0,2.76-.49,2.76-3V123.36c0-2.53-.49-3-2.76-3v-.81h6.35l10.13,17.38h.06V123.36c0-2.53-.48-3-2.75-3v-.81h7.55v.81c-2.34,0-2.76.48-2.76,3V141.1h-3.07L91.77,122.81h0v14.47c0,2.52.46,3,2.76,3v.81H87Z" transform="translate(0.01 0.12)" fill="#006189"/><path d="M107.47,140.28c2.26,0,2.75-.49,2.75-3V123.36c0-2.53-.49-3-2.75-3v-.81h15.24l.2,4.69h-1c-.12-1.75-.54-3.2-4.17-3.2h-2c-1.59,0-1.94.51-1.94,2.33v5.73h4.24c2.1,0,2.43-.46,2.43-2.59h.87v6.7h-.87c0-1.94-.33-2.62-2.43-2.62h-4.3v6.69c0,2.17.26,2.33,1.94,2.33h3c2.78,0,3.69-1.17,3.78-3.21h.94l-.19,4.7H107.47Z" transform="translate(0.01 0.12)" fill="#006189"/><path d="M145.18,93.81a2.41,2.41,0,1,1,2.5,2.32h-.08a2.37,2.37,0,0,1-2.42-2.32Z" transform="translate(0.01 0.12)" fill="#006189"/><path d="M147.6,95.77a2,2,0,1,0-2-2,2,2,0,0,0,2,2Z" transform="translate(0.01 0.12)" fill="#dde9e5"/><path d="M148.52,95.09a2,2,0,0,1-.83.16c-.92,0-1.26-.56-1.26-1.52,0-.78.24-1.41,1.2-1.41a2.44,2.44,0,0,1,.85.13v.71h-.12a.76.76,0,0,0-.72-.64c-.63,0-.74.68-.74,1.21s.24,1.28.84,1.28a1.24,1.24,0,0,0,.75-.21Z" transform="translate(0.01 0.12)" fill="#006189"/></svg>